<?xml version="1.0" standalone="no"?>
<!DOCTYPE svg PUBLIC "-//W3C//DTD SVG 20010904//EN"
 "http://www.w3.org/TR/2001/REC-SVG-20010904/DTD/svg10.dtd">
<svg version="1.0" xmlns="http://www.w3.org/2000/svg"
 width="302.000000pt" height="133.000000pt" viewBox="0 0 302.000000 133.000000"
 preserveAspectRatio="xMidYMid meet">

<g transform="translate(0.000000,133.000000) scale(0.100000,-0.100000)"
fill="#000000" stroke="none">
<path d="M0 665 l0 -665 1510 0 1510 0 0 665 0 665 -1510 0 -1510 0 0 -665z
m1930 470 c329 -46 586 -134 701 -242 56 -52 85 -116 75 -165 -33 -167 -376
-312 -854 -363 -159 -17 -533 -20 -683 -5 -522 52 -889 212 -889 387 0 59 23
105 76 152 143 126 461 218 874 255 109 9 590 -3 700 -19z m905 -593 c10 -23
15 -46 10 -50 -4 -4 -10 -1 -12 6 -3 7 -20 19 -39 27 -19 8 -34 19 -34 24 0
14 6 14 31 1 20 -11 24 -4 10 20 -11 16 -3 37 8 23 4 -4 16 -27 26 -51z
m-2617 -1 c-4 -27 -3 -28 19 -18 13 6 26 7 31 2 4 -4 2 -10 -5 -12 -7 -2 -29
-16 -49 -29 -20 -14 -38 -23 -40 -21 -3 2 2 17 11 33 8 16 15 39 15 52 0 12 5
22 11 22 7 0 10 -12 7 -29z m2549 -33 c21 -20 31 -48 17 -48 -3 0 -15 11 -26
25 -27 34 -43 21 -18 -15 29 -40 7 -47 -24 -8 -23 30 -24 34 -9 50 21 23 32
23 60 -4z m-2457 -43 c10 -12 9 -20 -4 -41 -31 -47 -83 -12 -62 42 7 18 50 18
66 -1z m2390 -16 c22 -29 22 -31 4 -44 -11 -8 -25 -15 -32 -15 -19 0 -26 28
-12 45 7 9 10 18 7 22 -4 3 -9 -2 -13 -11 -3 -9 -10 -13 -15 -10 -13 7 9 44
26 44 7 0 23 -14 35 -31z m-2355 -39 c-19 -37 -2 -50 21 -15 16 24 34 33 34
18 0 -18 -43 -77 -47 -65 -3 6 -11 12 -19 12 -8 0 -17 6 -20 14 -7 18 24 78
36 71 6 -4 4 -18 -5 -35z m2283 8 c17 -17 15 -57 -3 -64 -8 -4 -13 -10 -10
-14 3 -5 1 -11 -4 -14 -5 -4 -21 13 -35 36 -18 31 -22 46 -14 55 13 16 50 17
66 1z m-2177 -28 c5 0 9 -7 9 -16 0 -13 -3 -14 -14 -5 -12 10 -18 7 -31 -19
-22 -42 -39 -28 -18 16 11 22 22 33 31 29 7 -3 18 -5 23 -5z m2104 -30 c18
-34 18 -40 5 -40 -6 0 -16 11 -22 25 -6 14 -16 25 -21 25 -9 0 -7 -17 8 -52
11 -28 -14 -21 -27 7 -6 14 -15 25 -20 25 -8 0 -5 -19 9 -57 3 -7 0 -13 -6
-13 -13 0 -45 73 -34 77 4 2 19 10 33 17 39 22 58 18 75 -14z m-1973 -7 c9
-11 9 -19 0 -34 -7 -10 -12 -26 -12 -34 0 -21 -21 -28 -53 -16 -29 11 -29 5 2
85 11 27 40 26 63 -1z m1846 -25 c20 -20 15 -66 -8 -73 -24 -8 -39 1 -50 29
-15 42 27 75 58 44z m-1787 -8 c5 0 9 -7 9 -15 0 -9 -6 -12 -15 -9 -11 4 -19
-3 -26 -25 -6 -17 -15 -31 -20 -31 -12 0 -11 5 3 52 8 27 16 37 26 33 7 -3 18
-5 23 -5z m1699 -4 c0 -9 -7 -12 -19 -9 -28 7 -35 -14 -15 -44 15 -24 18 -25
29 -10 15 21 25 22 25 2 0 -18 -34 -37 -53 -29 -15 5 -37 46 -37 67 0 7 5 18
12 25 17 17 58 15 58 -2z m-1620 -31 c15 -18 6 -61 -16 -69 -20 -8 -54 11 -54
30 0 46 44 70 70 39z m75 -50 c0 -36 -3 -40 -25 -40 -18 0 -26 6 -28 23 -3 17
2 22 17 22 12 0 21 5 21 11 0 6 -7 9 -15 5 -8 -3 -15 -2 -15 3 0 13 13 22 30
19 10 -2 15 -15 15 -43z m105 40 c0 -2 -5 -27 -11 -55 -8 -36 -15 -50 -27 -50
-31 0 -44 16 -40 51 3 30 6 34 31 34 15 -1 27 5 27 12 0 7 5 13 10 13 6 0 10
-2 10 -5z m1310 -27 c0 -39 -10 -78 -19 -78 -11 1 -51 90 -39 90 6 0 17 -8 24
-17 12 -16 13 -15 14 10 0 15 5 27 10 27 6 0 10 -15 10 -32z m-1280 7 c0 -8 9
-15 21 -15 17 0 20 -5 17 -37 -3 -35 -6 -38 -37 -41 l-34 -3 6 38 c4 21 7 46
7 56 0 9 5 17 10 17 6 0 10 -7 10 -15z m1205 -41 c5 -34 3 -49 -7 -55 -26 -17
-44 -9 -56 25 -15 40 -8 63 21 69 12 2 25 5 28 6 4 0 10 -20 14 -45z m-181 24
c12 -36 15 -98 6 -98 -9 0 -13 12 -24 78 -5 30 10 47 18 20z m85 -12 c7 -8 11
-27 9 -43 -3 -24 -8 -28 -33 -28 -27 0 -30 4 -33 34 -5 46 31 69 57 37z m-991
-19 c2 -10 1 -30 -2 -43 -5 -20 -11 -24 -29 -18 -33 9 -42 21 -29 37 7 8 9 17
6 20 -3 3 -3 11 1 17 11 17 49 7 53 -13z m172 -32 c0 -55 0 -55 -27 -49 -38 9
-45 17 -41 50 2 21 9 30 26 32 12 2 22 8 22 13 0 5 5 9 10 9 6 0 10 -25 10
-55z m480 39 c0 -8 4 -13 9 -10 5 4 16 3 25 0 18 -7 23 -84 6 -84 -5 0 -10 14
-10 31 0 20 -4 29 -12 26 -8 -2 -12 -15 -10 -30 5 -42 -15 -32 -22 11 -8 53
-7 72 4 72 6 0 10 -7 10 -16z m-570 -39 c0 -25 -4 -45 -10 -45 -5 0 -10 16
-10 35 0 43 -16 46 -25 5 -4 -17 -11 -30 -17 -30 -6 0 -8 10 -4 23 3 12 6 30
6 40 0 12 8 17 30 17 29 0 30 -2 30 -45z m217 13 c-3 -18 -3 -27 0 -20 9 23
22 12 20 -18 -2 -28 -5 -30 -41 -30 l-39 0 7 38 c3 20 6 43 6 50 0 6 12 12 26
12 24 0 26 -3 21 -32z m163 22 c0 -5 -7 -10 -15 -10 -11 0 -15 -12 -15 -45 0
-25 -4 -45 -10 -45 -5 0 -10 20 -10 45 0 33 -4 45 -15 45 -8 0 -15 5 -15 10 0
6 18 10 40 10 22 0 40 -4 40 -10z m410 -10 c20 -38 -8 -78 -45 -64 -21 8 -30
51 -15 69 18 21 47 19 60 -5z m-86 -6 c9 -24 7 -64 -3 -64 -5 0 -11 12 -13 27
-5 42 -28 41 -28 -1 0 -20 -4 -36 -10 -36 -5 0 -10 20 -10 45 0 43 1 45 29 45
17 0 31 -6 35 -16z m-249 -39 c0 -43 -22 -58 -50 -35 -32 27 -10 84 30 78 16
-2 20 -11 20 -43z m83 26 c3 -9 -1 -11 -16 -7 -23 8 -37 -15 -19 -33 8 -8 14
-8 24 0 10 9 13 8 13 -5 0 -11 -9 -16 -30 -16 -27 0 -30 3 -30 33 0 19 3 37 7
41 11 11 46 2 51 -13z"/>
<path d="M670 750 l0 -270 45 0 44 0 3 131 3 130 49 -130 48 -131 44 0 44 0 0
270 0 270 -45 0 -44 0 -3 -131 -3 -130 -49 130 -48 131 -44 0 -44 0 0 -270z"/>
<path d="M1190 980 l0 -40 145 0 145 0 0 -230 0 -230 50 0 50 0 0 230 0 230
155 0 155 0 0 40 0 40 -350 0 -350 0 0 -40z"/>
<path d="M1901 901 c-46 -46 -55 -81 -56 -201 0 -94 3 -121 19 -150 27 -51 45
-68 78 -75 59 -13 99 22 131 115 3 8 6 -13 6 -47 l1 -63 40 0 40 0 0 90 0 90
35 0 35 0 0 -90 0 -90 40 0 40 0 0 215 0 215 -40 0 -40 0 0 -70 0 -70 -35 0
-35 0 0 70 0 70 -40 0 -40 0 -1 -57 0 -58 -15 40 c-8 22 -26 50 -40 63 -33 29
-96 30 -123 3z m95 -118 c5 -18 11 -23 25 -19 64 20 59 25 59 -58 0 -42 -2
-76 -5 -76 -4 0 -19 7 -36 15 -27 15 -30 14 -35 -2 -22 -70 -46 -81 -72 -33
-20 39 -12 178 12 195 24 18 45 9 52 -22z"/>
<path d="M970 695 l0 -215 144 0 144 0 17 53 c10 28 21 56 25 60 3 4 15 -20
25 -53 l18 -60 44 0 c23 0 43 4 43 9 0 4 -15 49 -34 100 l-34 91 54 0 c51 0
54 1 54 25 0 24 -3 25 -54 25 l-54 0 33 91 33 90 -46 -3 -46 -3 -16 -55 -17
-55 -18 58 -19 57 -43 0 c-24 0 -43 -2 -43 -4 0 -2 16 -48 35 -101 l36 -98
-33 -91 c-26 -71 -34 -85 -36 -63 -3 26 -5 27 -68 27 l-64 0 0 40 0 40 55 0
55 0 0 50 0 50 -55 0 c-54 0 -55 0 -55 30 l0 30 60 0 60 0 0 45 0 45 -100 0
-100 0 0 -215z"/>
<path d="M1630 695 l0 -215 105 0 105 0 0 50 0 49 -62 3 -63 3 -3 37 -3 37 58
3 58 3 0 45 0 45 -57 3 c-57 3 -58 4 -58 32 l0 30 65 0 65 0 0 45 0 45 -105 0
-105 0 0 -215z"/>
<path d="M2322 893 c2 -13 14 -19 41 -21 32 -3 37 0 37 17 0 18 -6 21 -41 21
-33 0 -40 -3 -37 -17z"/>
<path d="M257 445 c-4 -8 -2 -17 4 -21 12 -7 41 15 33 27 -8 14 -31 11 -37 -6z"/>
<path d="M2586 401 c-7 -10 22 -37 30 -28 9 8 -3 37 -15 37 -5 0 -12 -4 -15
-9z"/>
<path d="M542 341 c4 -13 18 -16 19 -4 0 4 -5 9 -11 12 -7 2 -11 -2 -8 -8z"/>
<path d="M520 301 c0 -5 7 -11 15 -15 9 -3 15 0 15 9 0 8 -7 15 -15 15 -8 0
-15 -4 -15 -9z"/>
<path d="M2387 314 c-3 -4 -2 -16 4 -26 13 -24 35 -9 26 16 -7 17 -19 21 -30
10z"/>
<path d="M673 264 c-9 -23 11 -38 26 -20 13 16 7 36 -10 36 -5 0 -12 -7 -16
-16z"/>
<path d="M760 219 c0 -5 5 -7 10 -4 6 3 10 8 10 11 0 2 -4 4 -10 4 -5 0 -10
-5 -10 -11z"/>
<path d="M840 215 c0 -14 4 -25 9 -25 12 0 23 29 15 41 -10 18 -24 9 -24 -16z"/>
<path d="M927 213 c-4 -3 -7 -12 -7 -20 0 -17 26 -17 33 1 8 21 -11 35 -26 19z"/>
<path d="M2082 214 c4 -21 22 -23 26 -1 2 10 -3 17 -13 17 -10 0 -15 -6 -13
-16z"/>
<path d="M2006 213 c-12 -12 -6 -43 9 -43 8 0 15 9 15 19 0 21 -13 34 -24 24z"/>
<path d="M1010 169 c0 -5 5 -7 10 -4 6 3 10 8 10 11 0 2 -4 4 -10 4 -5 0 -10
-5 -10 -11z"/>
<path d="M1170 170 c0 -11 7 -20 15 -20 8 0 15 9 15 20 0 11 -7 20 -15 20 -8
0 -15 -9 -15 -20z"/>
<path d="M1310 150 c0 -5 5 -10 11 -10 5 0 7 5 4 10 -3 6 -8 10 -11 10 -2 0
-4 -4 -4 -10z"/>
<path d="M1873 184 c-8 -21 13 -42 28 -27 13 13 5 43 -11 43 -6 0 -13 -7 -17
-16z"/>
<path d="M1548 138 c9 -9 15 -9 24 0 9 9 7 12 -12 12 -19 0 -21 -3 -12 -12z"/>
</g>
</svg>
